<svg width="1522" height="690" viewBox="0 0 1522 690" fill="none" xmlns="http://www.w3.org/2000/svg">
<g opacity="0.15">
<path d="M83.8517 97.0467V360.948H102.24C107.21 361.28 112.014 360.12 116.653 357.469C126.261 352.168 131.066 341.897 131.066 326.656V131.339C131.066 116.429 126.261 106.158 116.653 100.526C112.014 97.875 107.21 96.7153 102.24 97.0467H83.8517ZM0.357422 11.5644H142.993C175.463 11.5644 196.337 25.1488 205.614 52.3176C209.259 63.2514 211.578 77.3327 212.572 94.5617C212.903 101.188 213.069 109.14 213.069 118.417V314.728C213.069 326.325 210.915 339.578 206.608 354.487C200.976 372.379 193.355 388.117 183.747 401.701C195.343 411.972 202.798 428.539 206.111 451.4C207.436 460.015 208.265 470.783 208.596 483.705V501.596V678.028H126.593V507.56C126.593 499.277 125.102 492.319 122.12 486.687C119.801 482.379 116.487 479.066 112.18 476.747C107.21 474.096 102.406 472.937 97.7674 473.268H83.8517V678.028H0.357422V11.5644Z" fill="url(#paint0_linear_191_5639)"/>
<path d="M341.292 519.488H384.53L362.663 344.548L341.292 519.488ZM404.41 678.028L394.967 602.485H330.856L321.413 678.028H237.919L321.413 11.5644H404.41L487.904 678.028H404.41Z" fill="url(#paint1_linear_191_5639)"/>
<path d="M638.492 587.079V425.06H723.477V577.139C723.477 607.952 712.378 634.458 690.179 656.657C668.312 678.525 641.806 689.458 610.661 689.458C579.847 689.458 553.341 678.525 531.142 656.657C509.275 634.458 498.341 607.952 498.341 577.139V112.95C498.341 82.137 509.275 55.6309 531.142 33.432C553.341 11.5644 579.847 0.630661 610.661 0.630661C641.806 0.630661 668.312 11.5644 690.179 33.432C712.378 55.6309 723.477 82.137 723.477 112.95V264.035H638.492V103.011C638.492 95.39 635.842 88.9292 630.54 83.6279C624.908 77.9954 618.281 75.1791 610.661 75.1791C603.04 75.1791 596.579 77.9954 591.278 83.6279C585.646 88.9292 582.829 95.39 582.829 103.011V587.079C582.829 594.699 585.646 601.16 591.278 606.461C596.579 611.762 603.04 614.413 610.661 614.413C618.281 614.413 624.908 611.762 630.54 606.461C635.842 601.16 638.492 594.699 638.492 587.079Z" fill="url(#paint2_linear_191_5639)"/>
<path d="M832.318 594.533H915.316V678.028H748.824V11.5644H832.318V594.533Z" fill="url(#paint3_linear_191_5639)"/>
<path d="M1024.16 678.028H940.662V11.5644H1024.16V678.028Z" fill="url(#paint4_linear_191_5639)"/>
<path d="M1187.67 11.5644H1271.16V678.028H1187.67L1132.5 392.259V678.028H1049.01V11.5644H1132.5L1187.67 319.201V11.5644Z" fill="url(#paint5_linear_191_5639)"/>
<path d="M1521.64 264.035H1436.66V103.011C1436.66 95.39 1434.01 88.9292 1428.71 83.6279C1423.07 77.9954 1416.45 75.1791 1408.83 75.1791C1401.21 75.1791 1394.74 77.9954 1389.44 83.6279C1383.81 88.9292 1380.99 95.39 1380.99 103.011V587.079C1380.99 594.699 1383.81 601.16 1389.44 606.461C1394.74 611.762 1401.21 614.413 1408.83 614.413C1416.45 614.413 1423.07 611.762 1428.71 606.461C1434.01 601.16 1436.66 594.699 1436.66 587.079V386.295H1410.32V302.8H1521.64V577.139C1521.64 607.952 1510.54 634.458 1488.34 656.657C1466.48 678.525 1439.97 689.458 1408.83 689.458C1378.01 689.458 1351.51 678.525 1329.31 656.657C1307.44 634.458 1296.51 607.952 1296.51 577.139V112.95C1296.51 82.137 1307.44 55.6309 1329.31 33.432C1351.51 11.5644 1378.01 0.630661 1408.83 0.630661C1439.97 0.630661 1466.48 11.5644 1488.34 33.432C1510.54 55.6309 1521.64 82.137 1521.64 112.95V264.035Z" fill="url(#paint6_linear_191_5639)"/>
</g>
<defs>
<linearGradient id="paint0_linear_191_5639" x1="744.5" y1="0.945602" x2="773.857" y2="948.028" gradientUnits="userSpaceOnUse">
<stop offset="0.0104167" stop-color="#353535"/>
<stop offset="0.567708" stop-color="#272727" stop-opacity="0.49"/>
<stop offset="1" stop-color="#272727" stop-opacity="0"/>
</linearGradient>
<linearGradient id="paint1_linear_191_5639" x1="744.5" y1="0.945602" x2="773.857" y2="948.028" gradientUnits="userSpaceOnUse">
<stop offset="0.0104167" stop-color="#353535"/>
<stop offset="0.567708" stop-color="#272727" stop-opacity="0.49"/>
<stop offset="1" stop-color="#272727" stop-opacity="0"/>
</linearGradient>
<linearGradient id="paint2_linear_191_5639" x1="744.5" y1="0.945602" x2="773.857" y2="948.028" gradientUnits="userSpaceOnUse">
<stop offset="0.0104167" stop-color="#353535"/>
<stop offset="0.567708" stop-color="#272727" stop-opacity="0.49"/>
<stop offset="1" stop-color="#272727" stop-opacity="0"/>
</linearGradient>
<linearGradient id="paint3_linear_191_5639" x1="744.5" y1="0.945602" x2="773.857" y2="948.028" gradientUnits="userSpaceOnUse">
<stop offset="0.0104167" stop-color="#353535"/>
<stop offset="0.567708" stop-color="#272727" stop-opacity="0.49"/>
<stop offset="1" stop-color="#272727" stop-opacity="0"/>
</linearGradient>
<linearGradient id="paint4_linear_191_5639" x1="744.5" y1="0.945602" x2="773.857" y2="948.028" gradientUnits="userSpaceOnUse">
<stop offset="0.0104167" stop-color="#353535"/>
<stop offset="0.567708" stop-color="#272727" stop-opacity="0.49"/>
<stop offset="1" stop-color="#272727" stop-opacity="0"/>
</linearGradient>
<linearGradient id="paint5_linear_191_5639" x1="744.5" y1="0.945602" x2="773.857" y2="948.028" gradientUnits="userSpaceOnUse">
<stop offset="0.0104167" stop-color="#353535"/>
<stop offset="0.567708" stop-color="#272727" stop-opacity="0.49"/>
<stop offset="1" stop-color="#272727" stop-opacity="0"/>
</linearGradient>
<linearGradient id="paint6_linear_191_5639" x1="744.5" y1="0.945602" x2="773.857" y2="948.028" gradientUnits="userSpaceOnUse">
<stop offset="0.0104167" stop-color="#353535"/>
<stop offset="0.567708" stop-color="#272727" stop-opacity="0.49"/>
<stop offset="1" stop-color="#272727" stop-opacity="0"/>
</linearGradient>
</defs>
</svg>
